HIERARCHY
ROOT Hips
{
  OFFSET -331.093 83.8371 -317.828
  CHANNELS 6 Xposition Yposition Zposition Zrotation Xrotation Yrotation
  JOINT LeftUpLeg
  {
    OFFSET 8.64259 1.95398 -2.38835
    CHANNELS 3 Zrotation Xrotation Yrotation
    JOINT LeftLeg
    {
      OFFSET 43.7702 0 0
      CHANNELS 3 Zrotation Xrotation Yrotation
      JOINT LeftFoot
      {
        OFFSET 40.6238 0 0
        CHANNELS 3 Zrotation Xrotation Yrotation
        JOINT LeftToeBase
        {
          OFFSET 12.7242 0 0
          CHANNELS 3 Zrotation Xrotation Yrotation
          End Site
          {
            OFFSET 0 0 0
          }
        }
      }
    }
  }
  JOINT RightUpLeg
  {
    OFFSET -8.2249 1.95398 -2.59336
    CHANNELS 3 Zrotation Xrotation Yrotation
    JOINT RightLeg
    {
      OFFSET 43.5653 0 0
      CHANNELS 3 Zrotation Xrotation Yrotation
      JOINT RightFoot
      {
        OFFSET 40.6238 0 0
        CHANNELS 3 Zrotation Xrotation Yrotation
        JOINT RightToeBase
        {
          OFFSET 12.7242 0 0
          CHANNELS 3 Zrotation Xrotation Yrotation
          End Site
          {
            OFFSET 0 0 0
          }
        }
      }
    }
  }
  JOINT Spine
  {
    OFFSET 0.165834 0.87714 6.61349
    CHANNELS 3 Zrotation Xrotation Yrotation
    JOINT Spine1
    {
      OFFSET 7.38963 1.71661e-005 0
      CHANNELS 3 Zrotation Xrotation Yrotation
      JOINT Spine2
      {
        OFFSET 11.9445 1.14441e-005 0
        CHANNELS 3 Zrotation Xrotation Yrotation
        JOINT Spine3
        {
          OFFSET 14.7254 4.19617e-005 0
          CHANNELS 3 Zrotation Xrotation Yrotation
          JOINT Spine4
          {
            OFFSET 10.9679 0 0
            CHANNELS 3 Zrotation Xrotation Yrotation
            JOINT RightShoulder
            {
              OFFSET 2.46616 -1.6653 3.69651
              CHANNELS 3 Zrotation Xrotation Yrotation
              JOINT RightArm
              {
                OFFSET 13.0012 0 0
                CHANNELS 3 Zrotation Xrotation Yrotation
                JOINT RightForeArm
                {
                  OFFSET 28.7848 1.62311e-005 0
                  CHANNELS 3 Zrotation Xrotation Yrotation
                  JOINT RightHand
                  {
                    OFFSET 26.5688 1.62095e-005 0
                    CHANNELS 3 Zrotation Xrotation Yrotation
                    End Site
                    {
                      OFFSET 0 0 0
                    }
                  }
                }
              }
            }
            JOINT LeftShoulder
            {
              OFFSET 2.38034 -1.29275 -3.7523
              CHANNELS 3 Zrotation Xrotation Yrotation
              JOINT LeftArm
              {
                OFFSET 16.3182 6.07031e-005 0
                CHANNELS 3 Zrotation Xrotation Yrotation
                JOINT LeftForeArm
                {
                  OFFSET 27.0901 0 0
                  CHANNELS 3 Zrotation Xrotation Yrotation
                  JOINT LeftHand
                  {
                    OFFSET 24.5451 1.51738e-005 0
                    CHANNELS 3 Zrotation Xrotation Yrotation
                    End Site
                    {
                      OFFSET 0 0 0
                    }
                  }
                }
              }
            }
            JOINT Neck
            {
              OFFSET 5.0226 -0.0266342 0
              CHANNELS 3 Zrotation Xrotation Yrotation
              JOINT Head
              {
                OFFSET 6.69364 2.86102e-005 0
                CHANNELS 3 Zrotation Xrotation Yrotation
                End Site
                {
                  OFFSET 0 0 0
                }
              }
            }
          }
        }
      }
    }
  }
}
MOTION
Frames:	9
Frame Time:	0.0416667
25.9855 91.0256 -65.1588 74.9887 -41.9573 77.8509 -177.896 15.1272 81.634 -38.87 7.26627 0.689357 73.9544 16.4681 13.2373 53.0688 21.9544 5.15205 -176.118 36.8293 87.8835 -79.6644 -2.10339 -4.82561 60.6816 -0.756363 -0.89221 32.8762 -0.920305 -5.55596 -0.291521 7.51604 -89.83 11.8431 -0.499807 0.391315 0.172181 -0.482098 0.412923 -22.3635 -0.594321 0.223004 -2.35088 -0.594308 0.22301 91.8419 -41.0782 -99.5776 26.6924 -20.6261 17.2289 -11.6461 -1.21591 -73.8026 -26.0573 -0.537008 -2.8258 -93.8697 -46.5701 72.4835 -21.1494 14.179 6.45481 12.5282 -9.55239 -97.1385 28.572 2.96249 6.6394 6.14886 -2.25581 1.25397 3.36394 -2.4565 -0.240692 
19.5526 90.8937 -69.8856 78.2875 -44.1752 78.8551 -177.286 21.4777 81.1031 -45.7208 6.5967 0.156753 71.0243 15.1603 15.0109 54.097 23.3067 5.81732 -177.75 22.2398 86.1494 -75.1489 -4.66901 -6.50956 57.4004 1.08816 0.340894 28.1383 -0.769999 -6.94861 0.264592 7.81266 -89.7411 11.2471 0.647185 0.452934 -0.423732 0.666495 0.423991 -22.959 0.481148 0.626503 -2.94633 0.481142 0.626487 91.9 -40.59 -99.598 26.1924 -18.8621 12.8923 -12.055 -0.867454 -75.0372 -25.9062 -0.840316 -1.43175 -94.9041 -48.1142 71.3869 -25.4489 13.3291 12.7845 12.8694 -6.48248 -88.0587 28.0738 2.72946 5.96588 5.51293 -3.59589 1.89894 3.77405 -3.91349 -0.865214 
13.1059 91.9917 -74.2051 78.1084 -47.288 79.5145 -176.479 26.8315 83.4233 -46.8787 5.8713 -0.128351 71.5763 13.0266 12.0186 50.9621 21.8839 8.27679 178.721 9.00895 85.6502 -60.8625 -9.50107 -7.93946 53.6947 2.96614 1.92188 28.1948 -0.384018 -3.48964 0.802591 7.75409 -89.8373 11.3655 1.67295 0.156002 -0.304346 1.67818 0.0822029 -22.8471 1.54871 0.651699 -2.83446 1.5487 0.651696 91.587 -38.7137 -100.627 26.5413 -19.5392 8.99793 -10.3118 0.792777 -77.9704 -25.6532 -0.831833 -1.44638 -93.2842 -47.4874 73.6401 -31.1583 12.6876 20.6528 13.5467 -3.88286 -81.5411 29.5279 2.96833 6.30388 3.93206 -4.24776 1.56435 4.64809 -4.44187 -0.201401 
6.59827 92.6633 -78.746 74.9422 -49.7131 76.8477 -176.322 33.037 84.8499 -45.6729 6.86531 -0.665098 69.7641 11.5886 11.0147 47.6913 22.542 14.8098 174.769 1.67127 83.549 -47.697 -12.8761 -8.7112 56.2189 2.34562 1.42648 30.3514 -0.402861 -3.21454 1.1139 7.50426 -89.8052 11.8662 2.3068 0.142611 0.197337 2.31087 0.0408882 -22.3527 2.15725 0.829639 -2.34005 2.15725 0.829632 92.2282 -37.2568 -99.8743 25.3612 -20.9358 3.61147 -13.809 0.615616 -82.0215 -23.7142 -0.65206 -2.02383 -91.5056 -46.8656 76.1815 -35.595 10.1578 27.7007 10.4133 -2.2662 -76.3548 30.6922 2.93063 5.76853 5.48608 -3.88984 2.56861 2.12723 -4.3107 -0.702834 
-0.687718 93.177 -83.0825 73.0971 -52.1444 76.9126 -176.13 38.1312 89.2995 -44.339 7.1083 -0.917595 69.8319 8.42384 5.55523 43.0953 19.4638 17.9147 173.754 -2.85714 85.1412 -35.9112 -13.6721 -8.47623 55.9233 2.37917 1.57416 38.8045 -0.460776 -1.11154 1.32672 7.38804 -89.9157 12.1023 2.67732 -0.126993 0.434056 2.66913 -0.244792 -22.1222 2.59161 0.684078 -2.10957 2.59162 0.684082 92.0013 -36.7391 -100.42 24.1646 -20.9699 -1.45666 -17.2945 1.48438 -86.6815 -23.6002 -1.38825 1.66386 -90.732 -45.7862 77.1022 -37.486 7.63311 32.8944 9.64033 0.31507 -69.0289 31.2949 2.62082 4.5882 5.94454 -3.40467 3.06228 2.00855 -3.94434 -0.908518 
-7.96013 92.9713 -87.9344 70.6578 -54.3186 74.4833 -175.829 43.0231 91.5608 -42.3565 5.8448 -1.58689 70.206 7.80359 3.95763 41.6823 18.4774 18.9375 172.582 -3.01326 85.3031 -29.558 -14.5252 -7.39214 60.059 0.18777 0.0809173 52.7238 -1.74434 -3.87672 1.40371 7.4186 -89.8231 12.0396 2.87424 0.0382435 0.371861 2.87314 -0.0884126 -22.187 2.72974 0.90095 -2.17438 2.72977 0.900953 92.0926 -36.4878 -100.324 23.3736 -19.0773 -7.04076 -18.3936 1.70718 -86.8163 -24.5917 -1.41779 1.57116 -91.2736 -45.6922 76.2374 -37.5742 7.3334 34.2948 9.54388 4.33924 -59.9397 31.0874 2.63212 4.67641 7.04941 -2.70101 3.86098 2.37944 -3.44937 -1.02257 
-15.0022 92.8113 -92.5628 73.0848 -54.9561 74.4398 -174.713 43.8922 91.7089 -38.4588 3.58603 -2.60308 70.116 7.01146 2.46299 42.4441 18.8645 18.116 171.585 -1.82838 85.1368 -29.7123 -15.0053 -7.12213 69.3466 -4.5387 -2.59142 55.4 -3.71029 -8.81252 1.15804 7.73866 -89.6342 11.3932 2.47498 0.479212 -0.275464 2.49367 0.369754 -22.8258 2.21649 1.20123 -2.81316 2.2165 1.20122 91.5893 -37.1479 -101.05 22.2877 -16.4978 -10.8674 -16.7223 2.04757 -87.9403 -23.1032 -0.514391 -2.70732 -92.336 -46.9751 74.94 -36.2674 9.13345 32.8894 6.28003 7.0836 -49.5673 29.0897 2.28999 4.06711 6.8053 -2.06804 4.02256 3.99098 -2.83767 -0.470401 
-20.8626 93.0781 -96.6973 77.218 -54.7478 76.5555 -174.534 41.6056 91.85 -31.9933 3.56725 -3.1591 67.7228 6.07349 3.38396 44.0322 21.0138 18.8803 170.686 -0.941924 85.5637 -29.776 -12.1739 -6.05541 75.8482 -7.92377 -3.91943 52.3215 -2.62628 -6.51204 0.933276 8.00974 -89.5981 10.8502 2.04395 0.608311 -0.819214 2.06876 0.517726 -23.3635 1.76662 1.19463 -3.35088 1.76661 1.19463 91.0389 -38.1592 -101.746 21.6441 -15.0389 -10.5903 -15.6501 2.06851 -86.1493 -25.5695 -0.509765 -2.94171 -93.7229 -48.0959 73.1509 -34.6114 10.2921 29.4222 6.52629 15.2853 -39.7804 24.8096 1.90913 3.84689 5.22849 -1.84939 3.49812 4.72604 -2.39464 1.00549 
-26.0545 93.5121 -100.044 78.139 -54.5189 77.8777 -174.283 41.1363 93.4786 -30.6385 4.26917 -3.58477 64.9948 3.7888 3.34294 43.2784 20.4593 19.3596 172.591 0.703828 89.076 -27.9214 -3.86017 -4.98154 80.4483 -10.3062 -4.49426 44.7968 -1.65446 -5.24998 0.809412 7.97771 -89.7282 10.9159 1.73717 0.376544 -0.753901 1.75205 0.299699 -23.2962 1.54368 0.881326 -3.2836 1.54368 0.881335 90.7226 -38.962 -102.072 21.4146 -14.8179 -8.40714 -14.6007 0.96127 -83.4417 -26.4399 -0.882791 -1.33039 -93.4535 -47.8663 73.492 -33.3328 8.18112 28.0844 6.93319 17.8368 -36.2734 15.9783 1.01235 2.48401 3.8304 -1.84367 3.11096 4.29348 -2.2779 1.14451 
